<svg width="24" height="15" viewBox="0 0 24 15" fill="none" xmlns="http://www.w3.org/2000/svg">
<g clip-path="url(#clip0_205_404)">
<path d="M0.186531 7.02506C0.757239 6.36106 1.3547 5.75672 1.97385 5.21355C4.77368 2.758 8.09812 1.44619 11.5255 1.38032C12.8069 1.35566 14.1007 1.50548 15.3843 1.83503L14.2312 2.94621C13.3364 2.77381 12.4405 2.69702 11.5526 2.71415C8.46453 2.77362 5.45591 3.96705 2.90765 6.20221C2.45374 6.60027 2.01662 7.02844 1.59865 7.48579C2.39378 8.37432 3.27835 9.14221 4.22602 9.78701C4.80962 10.1843 5.41685 10.5348 6.04166 10.8383L5.01391 11.8287C4.47055 11.5456 3.94086 11.2294 3.42796 10.8803C2.22815 10.0639 1.12072 9.06806 0.150593 7.89721C-0.0660102 7.63429 -0.0445256 7.26295 0.186531 7.02506ZM18.756 0L19.907 1.10911L5.49204 15L4.34086 13.8905L18.756 0ZM19.0861 3.31416C19.95 3.78976 20.7984 4.35457 21.624 5.01066C22.3812 5.61218 23.1152 6.2854 23.8193 7.03108C24.0465 7.27142 24.0576 7.62789 23.8635 7.87933C23.0566 8.97734 22.1299 9.91499 21.1156 10.6955C18.5781 12.6474 15.4958 13.6084 12.3735 13.6219C11.1794 13.627 10.4599 13.0308 9.2827 12.7607L9.97509 12.0939C10.769 12.2266 11.5702 12.2913 12.3681 12.2879C15.1847 12.2759 17.9644 11.4094 20.2521 9.64924C21.033 9.04867 21.7572 8.34327 22.406 7.53115C21.8617 6.9844 21.307 6.48791 20.7443 6.04092C19.8742 5.34963 18.9783 4.76882 18.0671 4.29566L19.0861 3.31416ZM12.0001 3.41466C12.5204 3.41466 13.0189 3.50519 13.4798 3.67044L12.3687 4.74115C12.2478 4.72628 12.1249 4.71875 12.0003 4.71875C11.2032 4.71875 10.4817 5.03005 9.95946 5.53332C9.43719 6.03659 9.11414 6.73202 9.11414 7.50009C9.11414 7.62036 9.12196 7.73874 9.13739 7.85487L8.02624 8.92596C7.85456 8.48198 7.76081 8.00148 7.76081 7.50009C7.76081 6.37179 8.23542 5.35076 9.00262 4.61129C9.76962 3.87182 10.8294 3.41466 12.0001 3.41466ZM16.0378 6.25152C16.1687 6.64488 16.2394 7.06458 16.2394 7.50009C16.2394 8.62821 15.7648 9.64943 14.9978 10.3887C14.2304 11.128 13.1706 11.5852 12.0001 11.5852C11.5483 11.5852 11.113 11.5172 10.7046 11.3907L11.8597 10.2777C11.9062 10.2799 11.953 10.2811 12.0001 10.2811C12.7972 10.2811 13.5187 9.97014 14.0409 9.46687C14.5632 8.9636 14.8863 8.26817 14.8863 7.50028C14.8863 7.45492 14.8851 7.40994 14.8827 7.36477L16.0378 6.25152Z" fill="white"/>
</g>
<defs>
<clipPath id="clip0_205_404">
<rect width="24" height="15" fill="white"/>
</clipPath>
</defs>
</svg>
