<svg width="23" height="19" viewBox="0 0 23 19" fill="none" xmlns="http://www.w3.org/2000/svg">
<g clip-path="url(#clip0_205_542)">
<path d="M5.32516 9.81979C5.32516 9.83912 5.32516 9.85845 5.32516 9.87602L6.15621 9.09226C6.27198 8.98287 6.40957 8.89597 6.56112 8.8365C6.71266 8.77704 6.8752 8.74618 7.03945 8.74569C7.2037 8.7452 7.36644 8.77509 7.51838 8.83365C7.67033 8.89221 7.8085 8.97829 7.92501 9.08699C8.04152 9.19568 8.13409 9.32486 8.19742 9.46714C8.26076 9.60942 8.29363 9.76202 8.29415 9.91622C8.29467 10.0704 8.26284 10.2232 8.20046 10.3659C8.13809 10.5085 8.0464 10.6383 7.93063 10.7476L5.07996 13.4451C4.84995 13.6617 4.53912 13.7855 4.21342 13.7905C3.88772 13.7954 3.5728 13.681 3.33549 13.4715L0.426801 11.071C0.206974 10.8592 0.0804129 10.5772 0.072424 10.2816C0.0644351 9.98592 0.175607 9.69833 0.383711 9.4763C0.591815 9.25428 0.881514 9.11419 1.19488 9.08404C1.50825 9.05389 1.82219 9.1359 2.07394 9.31368L2.82263 9.93577C2.72763 8.0199 3.24942 6.12157 4.32003 4.48812C5.38221 2.86854 6.95104 1.59631 8.81222 0.845219C9.47588 0.578123 10.1654 0.371567 10.8711 0.228405C13.1312 -0.249665 15.4985 0.0361473 17.5562 1.03553C19.6139 2.0349 21.2301 3.68378 22.1203 5.69187C22.4046 6.31438 22.6222 6.96192 22.7698 7.62491C23.1292 9.19663 23.0447 10.8293 22.5246 12.3608C21.9964 13.8855 21.0592 15.2568 19.8031 16.3429C18.6036 17.4059 17.1583 18.1938 15.5804 18.645C14.3126 19.0016 12.977 19.0938 11.6673 18.915C10.3575 18.7362 9.1052 18.2908 7.99801 17.6099C7.71977 17.4405 7.5246 17.1743 7.45545 16.8697C7.3863 16.5652 7.44883 16.2474 7.62927 15.9862C7.80972 15.7249 8.09331 15.5417 8.41765 15.4768C8.742 15.4119 9.08053 15.4706 9.35877 15.64C9.6863 15.8444 10.0327 16.0209 10.3938 16.1672C10.7386 16.3052 11.0956 16.4146 11.4607 16.494C12.5875 16.7425 13.7638 16.7098 14.8729 16.3991C16.0831 16.0485 17.1902 15.4391 18.1073 14.619C19.0539 13.8026 19.7588 12.7697 20.1531 11.621C20.5429 10.4804 20.6074 9.26372 20.3403 8.09235C20.2245 7.58048 20.0566 7.08027 19.8387 6.59864C19.1757 5.09301 17.9656 3.85681 16.4234 3.10972C14.8813 2.36264 13.107 2.15304 11.4158 2.51818C10.8687 2.62739 10.3344 2.78751 9.82109 2.99616C8.42736 3.55124 7.25193 4.49943 6.45756 5.70944C5.64829 6.94142 5.25363 8.37392 5.32516 9.81979ZM11.3859 5.9748C11.3859 5.69003 11.5064 5.41693 11.7208 5.21557C11.9353 5.01421 12.2262 4.90108 12.5295 4.90108C12.8328 4.90108 13.1237 5.01421 13.3382 5.21557C13.5526 5.41693 13.6731 5.69003 13.6731 5.9748V9.31368L16.4602 10.767C16.7248 10.9054 16.9199 11.1368 17.0028 11.4104C17.0856 11.6839 17.0493 11.9771 16.9019 12.2255C16.7545 12.474 16.508 12.6572 16.2166 12.735C15.9253 12.8128 15.6129 12.7787 15.3484 12.6403L12.0597 10.9234C11.8589 10.8384 11.6885 10.7009 11.569 10.5273C11.4495 10.3536 11.3859 10.1513 11.3859 9.94455V5.9748Z" fill="black"/>
</g>
<defs>
<clipPath id="clip0_205_542">
<rect width="23" height="19" fill="white"/>
</clipPath>
</defs>
</svg>
